# xmcd
#
# Track frame offsets: 
#        150
#        14691
#        27009
#        42839
#        54531
#        65231
#        76267
#        87504
#        98414
#
# Disc length: 1465 seconds
#
# Revision: 0
# Processed by: cddbd v1.5.2PL0 Copyright (c) Steve Scherf et al.
# Submitted via: ExactAudioCopy v0.99pb4
#
DISCID=6b05b709
DTITLE=O.B. McClinton - O.B. McClinton Disc 2
DYEAR=1986
DGENRE=Classic Country
TTITLE0=I Can't Stop Loving You
TTITLE1=There Goes My Everything
TTITLE2=Makin' Believe
TTITLE3=Cold, Cold Heart
TTITLE4=Don't Let the Green Grass Fool You
TTITLE5=Born to Lose
TTITLE6=I Can't Help it if I'm Still in Love With You
TTITLE7=King of the Road
TTITLE8=Red Roses for a Blue Lady
EXTD=
EXTT0=
EXTT1=
EXTT2=
EXTT3=
EXTT4=
EXTT5=
EXTT6=
EXTT7=
EXTT8=
PLAYORDER=
